<svg width="16" height="16" viewBox="0 0 16 16" fill="none" xmlns="http://www.w3.org/2000/svg">
<path d="M15.8253 0.12029C15.9934 0.264266 16.0468 0.501593 15.9567 0.703697C14.4262 4.13468 11.2138 8.8743 8.86221 11.3447C8.2271 12.012 7.5461 12.4205 7.02342 12.6626C6.8178 12.7578 6.63562 12.8278 6.48879 12.878C6.47104 13.1051 6.42872 13.4159 6.32837 13.7456C6.1278 14.4046 5.66238 15.2248 4.62129 15.4851C3.54914 15.7531 2.35456 15.7535 1.54286 15.6182C1.33741 15.584 1.14579 15.5393 0.980486 15.4834C0.825714 15.4311 0.650683 15.3548 0.514566 15.2357C0.443768 15.1737 0.360124 15.0799 0.311374 14.9481C0.258196 14.8043 0.25946 14.6486 0.315022 14.5051C0.410031 14.2596 0.631426 14.1253 0.776434 14.0528C1.16948 13.8563 1.40103 13.6002 1.64331 13.2275C1.7375 13.0826 1.82731 12.9298 1.93005 12.755C1.96699 12.6921 2.0056 12.6264 2.04668 12.5572C2.19814 12.3021 2.37301 12.0176 2.59318 11.7094C3.12099 10.9705 3.7939 10.7845 4.33883 10.8132C4.46503 10.8198 4.58218 10.8377 4.68707 10.8606C4.74928 10.6888 4.82878 10.4812 4.92509 10.253C5.18619 9.63422 5.583 8.83431 6.11234 8.18428C8.28751 5.51317 12.2914 1.97796 15.2287 0.0800421C15.4146 -0.0400593 15.6573 -0.0236867 15.8253 0.12029Z" fill="white"/>
</svg>
